<?xml version="1.0" encoding="UTF-8"?><svg id="a" xmlns="http://www.w3.org/2000/svg" viewBox="0 0 1452.96 304.56"><defs><style>.b{fill:#cf2229;}.c{letter-spacing:-.02em;}.d{letter-spacing:-.02em;}.e{fill:#010101;font-family:Ubuntu, Ubuntu;font-size:72.8px;isolation:isolate;}</style></defs><g><path class="b" d="M132.75,185.47c-9.17,.01-17.25-1.18-25.16-3.54-8.49-2.54-16.38-6.31-23.67-11.33-8.45-5.83-15.63-12.95-21.53-21.37-5.03-7.18-8.83-14.96-11.43-23.32-1.73-5.53-2.84-11.18-3.4-16.95-.39-4.02-.5-8.04-.32-12.06,.37-8.39,1.96-16.55,4.77-24.48,2.44-6.86,5.7-13.32,9.8-19.33,6.03-8.84,13.46-16.29,22.29-22.34,7.3-5,15.2-8.75,23.68-11.28,4.94-1.47,9.97-2.46,15.1-3,3.81-.4,7.63-.58,11.47-.46,5.31,.17,10.56,.8,15.74,1.95,7.37,1.63,14.41,4.19,21.1,7.68,5.65,2.95,10.89,6.52,15.75,10.65,.87,.74,1.45,1.71,2.07,2.64,1.1,1.62,2.11,3.29,3.2,4.92,.32,.48,.27,.88,.02,1.34-1.26,2.34-4.36,2.83-6.29,.95-2.02-1.97-4.12-3.84-6.33-5.59-6.73-5.31-14.13-9.41-22.22-12.26-5.03-1.77-10.18-3-15.46-3.7-2.7-.36-5.42-.54-8.15-.62-5.76-.16-11.46,.36-17.11,1.49-8.47,1.69-16.42,4.75-23.85,9.16-9.21,5.46-16.95,12.55-23.22,21.22-5.93,8.22-10.08,17.27-12.43,27.13-1.1,4.63-1.75,9.33-1.96,14.08-.55,12.41,1.69,24.27,6.84,35.58,3.97,8.7,9.39,16.39,16.23,23.05,8.63,8.4,18.68,14.47,30.14,18.18,5.14,1.66,10.39,2.73,15.77,3.27,7.52,.75,14.98,.4,22.39-1.03,10.43-2.02,20.03-6.05,28.78-12.06,10.19-7,18.22-15.95,24.11-26.82,2.07-3.81,3.79-7.77,5.17-11.88,.57-1.71,1.76-2.75,3.55-2.89,1.59-.12,2.87,.56,3.71,1.95,.64,1.06,.7,2.21,.31,3.37-2.73,8.07-6.56,15.56-11.54,22.47-4.52,6.27-9.8,11.81-15.82,16.65-5.93,4.76-12.4,8.63-19.38,11.65-6.09,2.64-12.41,4.53-18.94,5.67-4.86,.85-9.76,1.3-13.79,1.26Z"/><path class="b" d="M132.08,34.83c36,.06,65.82,29.14,65.76,66.05-.06,36.43-29.7,66.2-66.86,65.71-35.87-.47-65.57-29.95-64.88-67.22,.65-35.36,29.5-64.55,65.99-64.55Zm-.04,8.61c-31.69,0-57.34,25.57-57.37,57.17-.03,31.41,25.21,57.35,57.22,57.39,31.67,.04,56.86-25.27,57.35-56.31,.52-32.85-26.04-58.32-57.2-58.26Z"/><path class="b" d="M131.2,197.9c7.1,.02,14.13-.67,21.06-2.24,.98-.22,1.94-.58,2.97-.58,2.05,0,3.6,1.4,3.86,3.5,.21,1.75-1.1,3.58-2.93,4.02-4.1,.99-8.25,1.74-12.44,2.25-4.55,.55-9.12,.82-13.7,.76-6.72-.09-13.37-.79-19.96-2.15-7.97-1.64-15.64-4.18-23.01-7.6-5.99-2.78-11.67-6.12-17.03-9.98-4.83-3.48-9.33-7.34-13.51-11.59-7.14-7.26-13.11-15.38-17.89-24.37-4.26-8.03-7.43-16.47-9.49-25.33-1.02-4.41-1.74-8.87-2.2-13.38-.48-4.74-.63-9.48-.46-14.24,.18-5.26,.78-10.47,1.75-15.64,1.33-7.08,3.38-13.94,6.13-20.6,2.49-6.05,5.54-11.8,9.12-17.28,6.16-9.43,13.66-17.66,22.46-24.69,8.9-7.1,18.71-12.6,29.41-16.48,2.14-.78,4.4-1.03,6.63-1.36C106.66,.22,111.35-.06,116.07,0c.9,.01,1.8,.09,2.7,.08,.46,0,.55,.2,.58,.59,.16,1.94-1.17,3.71-3.13,4.04-4.77,.8-9.47,1.85-14.09,3.3-7.53,2.37-14.68,5.59-21.42,9.71-6.81,4.16-13.03,9.06-18.63,14.74-6.82,6.92-12.48,14.69-16.99,23.3-4.05,7.72-6.99,15.85-8.84,24.37-1.14,5.25-1.83,10.56-2.07,15.94-.23,5.15-.1,10.3,.47,15.42,.46,4.13,1.18,8.21,2.16,12.25,1.69,7.03,4.15,13.77,7.36,20.24,3.18,6.4,7.04,12.37,11.54,17.93,6.7,8.28,14.57,15.26,23.56,20.97,8.09,5.14,16.76,9,26.01,11.55,4.43,1.22,8.92,2.14,13.48,2.73,3.21,.41,6.43,.69,9.67,.73,.92,0,1.85,0,2.77,0Z"/><path class="b" d="M11.35,84.51c-6.69,46.12,12.88,90.44,49.74,116.44,20.95,14.78,44.32,22.16,69.98,22.06,25.63-.1,48.85-7.77,69.91-22.55-.6,1.81-1.15,3.51-1.74,5.2-.69,1.99-1.44,3.96-2.13,5.94-.15,.44-.39,.75-.79,.99-8.21,4.87-16.84,8.79-25.92,11.75-5.52,1.8-11.13,3.23-16.83,4.28-5.63,1.03-11.3,1.67-17.02,1.92-5.17,.23-10.34,.19-15.51-.2-6.8-.51-13.53-1.55-20.17-3.14-10.12-2.42-19.81-6.01-29.05-10.79-7.09-3.66-13.78-7.94-20.06-12.86-8.71-6.82-16.42-14.61-23.14-23.4-6.36-8.32-11.59-17.29-15.76-26.88-2.97-6.84-5.3-13.9-7.02-21.15-1.39-5.86-2.35-11.8-2.91-17.8-.16-1.73-.27-3.46-.38-5.2-.05-.79,.3-1.5,.52-2.23,2.32-7.42,4.94-14.72,8-21.87,.06-.14,.13-.27,.27-.54Z"/><path class="b" d="M134.37,283.18c-1.79,.09-5.07,.1-8.35,.02-4.16-.1-8.3-.33-12.45-.71-3.99-.37-7.95-.87-11.9-1.51-4.4-.71-8.76-1.6-13.1-2.64-6.28-1.52-12.45-3.37-18.52-5.57-5.39-1.95-10.67-4.17-15.85-6.64-7.88-3.77-15.44-8.09-22.68-12.99-7.26-4.92-14.12-10.34-20.55-16.3-.59-.55-1.25-1.04-1.63-1.79-.87-1.71-.45-3.66,1.08-4.85,1.41-1.09,3.5-1,4.85,.25,4.81,4.47,9.83,8.67,15.12,12.56,6.88,5.06,14.1,9.58,21.67,13.54,8.2,4.29,16.7,7.88,25.5,10.76,7.25,2.38,14.62,4.25,22.12,5.61,5.1,.93,10.24,1.6,15.42,2.05,6.26,.54,12.52,.75,18.79,.59,6.18-.17,12.34-.63,18.47-1.49,1.25-.17,2.49-.58,3.79-.32,.71,.14,1.31,.47,1.83,.97,.2,.19,.21,.31,0,.52-2.26,2.26-4.58,4.44-7.02,6.51-.57,.48-1.31,.34-1.96,.42-4.37,.49-8.76,.83-14.64,1.04Z"/><path class="b" d="M75.91,247.73c-.69,.08-1.41-.3-2.14-.6-10.98-4.44-21.33-10.04-31-16.88-5.57-3.95-10.86-8.24-15.85-12.9-7.95-7.41-15.03-15.56-21.22-24.49-1.78-2.57-3.49-5.17-5.09-7.85-1.15-1.93-.62-4.23,1.23-5.35,1.84-1.11,4.14-.5,5.31,1.43,4.2,6.91,8.94,13.43,14.23,19.55,6.27,7.25,13.19,13.79,20.77,19.66,7.85,6.08,16.24,11.27,25.15,15.63,3.25,1.59,6.57,3.04,9.94,4.37,1.74,.69,2.68,2.03,2.63,3.78-.05,1.64-1.1,3-2.71,3.52-.36,.12-.73,.12-1.25,.14Z"/><path class="b" d="M183.93,240.25c-.88,1.52-1.74,3.04-2.64,4.55-1.03,1.71-2.1,3.4-3.14,5.11-.22,.36-.49,.57-.89,.7-6.93,2.26-14,4.01-21.18,5.25-4.81,.83-9.65,1.41-14.52,1.79-5.65,.44-11.3,.5-16.95,.31-5.45-.18-10.88-.71-16.28-1.5-5.39-.79-10.72-1.88-16-3.22-2.07-.53-3.36-2.53-2.89-4.51,.53-2.21,2.49-3.44,4.7-2.89,3.81,.95,7.64,1.81,11.52,2.47,3.01,.51,6.03,.94,9.07,1.26,4.57,.49,9.16,.76,13.76,.82,4.31,.06,8.61-.1,12.91-.41,5.18-.38,10.31-1.07,15.41-2.02,8.3-1.55,16.4-3.81,24.3-6.8,.9-.34,1.79-.69,2.69-1.03l.13,.12Z"/><path class="b" d="M89.31,304.3c-1.21-.12-2.4-.44-3.6-.71-7.07-1.58-14.03-3.54-20.89-5.88-7.17-2.45-14.19-5.28-21.03-8.54-.58-.27-1.15-.54-1.72-.83-1.89-.97-2.62-3.19-1.68-5.12,.88-1.81,3.15-2.6,5.02-1.71,3.79,1.8,7.6,3.53,11.49,5.11,6.94,2.82,14.01,5.23,21.24,7.22,3.96,1.09,7.95,2.03,11.96,2.9,1.87,.41,3.08,1.9,3.08,3.75,0,1.79-1.25,3.3-3.06,3.71-.25,.06-.52,.06-.8,.09Z"/><path class="b" d="M172.68,196.7c-1.82,0-3.33-1.16-3.74-2.82-.44-1.8,.33-3.57,2-4.36,3.82-1.8,7.57-3.71,11.17-5.93,5.73-3.53,11.05-7.59,15.94-12.22,2.35-2.22,4.57-4.58,6.7-7.01,1.16-1.32,2.85-1.7,4.43-1.05,.35,.14,.45,.29,.38,.68-.44,2.46-.84,4.93-1.26,7.4-.06,.37-.23,.68-.5,.97-5.19,5.54-10.91,10.47-17.17,14.77-5.13,3.53-10.53,6.59-16.22,9.14-.57,.26-1.15,.44-1.73,.4Z"/><path class="b" d="M179.01,100.83c.06,25.71-21.02,47.15-47.42,46.97-25.46-.18-47.04-20.92-46.7-47.77,.32-25.66,21.44-46.96,48.23-46.36,25.37,.57,46,21.41,45.89,47.17Zm-85.86-.14c-.11,21.24,17.02,38.43,37.87,38.87,22.4,.48,39.61-17.5,39.79-38.42,.18-21.66-17.12-39-38.28-39.26-22.41-.27-39.51,17.91-39.38,38.81Z"/><path class="b" d="M132.52,71.53c-16.3-.3-29.65,12.69-29.75,28.97-.1,16.21,12.98,29.41,28.95,29.41,16.39,0,29.41-12.93,29.41-29.22,.07-15.73-12.63-28.87-28.61-29.16Zm8.26,31.54c-6.57-.07-11.52-5.22-11.59-11.37-.07-6.71,5.07-11.89,11.65-11.88,6.38,0,11.57,5.2,11.57,11.59,0,6.47-5.23,11.74-11.63,11.67Z"/></g><g><path class="b" d="M269.57,205.57v-62.49c23.44,27.7,43.03,41.56,58.76,41.56,7.76,.29,15.31-2.49,21.03-7.73,5.52-4.83,8.58-11.89,8.32-19.22,.53-6.32-2.01-12.51-6.82-16.63-8.13-5.01-17.07-8.58-26.42-10.56-11.13-2.65-21.98-6.34-32.42-11.05-6.78-3.4-12.53-8.57-16.62-14.96-4.34-6.82-6.52-14.78-6.29-22.86-.62-12.58,4.41-24.77,13.71-33.25,9.52-8.33,21.85-12.72,34.49-12.31,13.23,.08,26.04,4.59,36.41,12.8v-10.86h19.79v49.86c-21.7-20.29-39.98-30.34-54.78-30.34-7.35-.47-14.61,1.74-20.45,6.23-4.39,3.53-6.98,8.83-7.06,14.47-.07,4.18,1.18,8.28,3.57,11.71,2.39,3.23,5.6,5.76,9.31,7.32,7.28,2.62,14.72,4.78,22.28,6.49,10.74,2.61,21.23,6.17,31.34,10.63,6.99,3.87,12.76,9.63,16.62,16.63,4.81,7.93,7.26,17.07,7.07,26.34,.32,13.1-5.09,25.7-14.79,34.5-9.91,9.15-23,14.07-36.48,13.71-15.02,.02-29.46-5.76-40.32-16.14v16.13l-20.23,.02Z"/><polygon class="b" points="461.41 205.56 461.41 127.78 412.71 59.13 392.76 59.13 392.76 38.94 424.75 38.94 475.37 109.83 508.62 59.46 487.93 59.46 487.93 38.94 545.11 38.94 485.98 128.12 485.98 185.12 508.43 185.12 508.43 205.56 461.41 205.56"/><polygon class="b" points="577.09 205.55 577.09 59.46 553.75 59.46 553.75 38.94 609.69 38.94 681.84 165.99 681.84 59.46 658.15 59.46 658.15 38.94 701.28 38.94 701.28 205.56 676.35 205.56 597.38 64.53 597.38 185.12 620.74 185.12 620.74 205.56 577.09 205.55"/><polygon class="b" points="769.94 205.56 769.94 59.46 736.2 59.46 736.2 101.02 716 101.02 716 38.94 848.99 38.94 848.99 101.11 828.71 101.11 828.71 59.55 794.56 59.55 794.56 185.12 816 185.12 816 205.56 769.94 205.56"/><polygon class="b" points="882.49 205.56 882.49 59.46 864.7 59.46 864.7 38.94 907.35 38.94 907.35 185.12 924.95 185.12 924.95 205.56 882.49 205.56"/><polygon class="b" points="944.74 205.56 944.74 185.12 1032.43 62.46 968.85 62.46 968.85 91.14 948.81 91.14 948.81 38.94 1064.18 38.94 1064.18 60.02 974.33 185.12 1046.15 185.12 1046.15 153.53 1066.42 153.53 1066.42 205.56 944.74 205.56"/><polygon class="b" points="1108.15 205.56 1108.15 59.46 1086.96 59.46 1086.96 38.94 1223.11 38.94 1223.11 88.14 1202.83 88.14 1202.83 59.46 1132.92 59.46 1132.92 107.84 1193.68 107.84 1193.68 128.6 1132.92 128.6 1132.92 185.09 1202.82 185.09 1202.82 155.45 1223.1 155.45 1223.1 205.31 1108.15 205.56"/><polygon class="b" points="1261.67 205.55 1261.67 59.46 1238.73 59.46 1238.73 38.94 1294.66 38.94 1366.06 165.99 1366.06 59.46 1342.63 59.46 1342.63 38.94 1385.85 38.94 1385.85 205.56 1360.91 205.56 1281.95 64.53 1281.95 185.12 1305.22 185.12 1305.22 205.56 1261.67 205.55"/><g><path class="b" d="M1423.72,10.17v1.57h10.88c8.41,.02,15.21,6.81,15.22,15.22v10.89c-.02,8.4-6.81,15.2-15.22,15.22h-10.88c-8.4-.02-15.21-6.81-15.22-15.22v-10.89c.02-8.4,6.82-15.2,15.22-15.22v-3.15c-10.15,0-18.37,8.23-18.37,18.37v10.89c0,10.14,8.22,18.37,18.37,18.37h10.88c10.15,0,18.37-8.23,18.37-18.37v-10.89c0-10.14-8.22-18.37-18.37-18.37h-10.88v1.57Z"/><path class="b" d="M1429.36,31.12c.77,.13,1.56,.13,2.33,0,.62-.22,1.21-.52,1.74-.92,.42-.41,.74-.93,.91-1.5,.14-.6,.14-1.23,0-1.83,.05-1.13-.41-2.24-1.26-2.99-1.17-.81-2.57-1.19-3.98-1.08h-3.15v8.31h3.4Zm12.39,13.63h-4.07c-.73,.04-1.43-.31-1.84-.91l-5.48-8.31-.67-.66h-3.14v10.14h-5.5V18.73h8.31c1.52-.05,3.03,.15,4.49,.58,1.14,.27,2.21,.78,3.15,1.5,.79,.63,1.4,1.46,1.74,2.41,.41,.94,.6,1.96,.58,2.99,.08,1.68-.45,3.33-1.5,4.65-.52,.62-1.1,1.17-1.74,1.66-.78,.5-1.63,.86-2.52,1.08l.92,.67,.66,.91,6.61,9.56Z"/></g></g><g transform="translate(71.54 45.03)"><text class="e" transform="translate(807.15 290.8)"><tspan x="0" y="0">An M2P </tspan><tspan class="c" x="272.41" y="0">C</tspan><tspan x="316.45" y="0">ompany</tspan></text></g></svg>