<?xml version="1.0" encoding="UTF-8"?><svg xmlns="http://www.w3.org/2000/svg" viewBox="0 0 45.04 64.51"><defs><style>.d{fill:#cf2228;}</style></defs><g id="a"/><g id="b"><g id="c"><g><path class="d" d="M28.14,39.32c-1.94,0-3.66-.25-5.33-.75-1.8-.54-3.47-1.34-5.02-2.4-1.79-1.24-3.31-2.75-4.56-4.53-1.07-1.52-1.87-3.17-2.42-4.94-.37-1.17-.6-2.37-.72-3.59-.08-.85-.11-1.7-.07-2.56,.08-1.78,.42-3.51,1.01-5.19,.52-1.46,1.21-2.82,2.08-4.1,1.28-1.87,2.85-3.45,4.72-4.74,1.55-1.06,3.22-1.86,5.02-2.39,1.05-.31,2.11-.52,3.2-.64,.81-.08,1.62-.12,2.43-.1,1.12,.04,2.24,.17,3.34,.41,1.56,.35,3.05,.89,4.47,1.63,1.2,.63,2.31,1.38,3.34,2.26,.18,.16,.31,.36,.44,.56,.23,.34,.45,.7,.68,1.04,.07,.1,.06,.19,0,.28-.27,.5-.92,.6-1.33,.2-.43-.42-.87-.81-1.34-1.18-1.43-1.13-3-1.99-4.71-2.6-1.07-.38-2.16-.64-3.28-.78-.57-.08-1.15-.12-1.73-.13-1.22-.03-2.43,.08-3.63,.32-1.8,.36-3.48,1.01-5.06,1.94-1.95,1.16-3.59,2.66-4.92,4.5-1.26,1.74-2.14,3.66-2.63,5.75-.23,.98-.37,1.98-.42,2.99-.12,2.63,.36,5.15,1.45,7.54,.84,1.84,1.99,3.47,3.44,4.89,1.83,1.78,3.96,3.07,6.39,3.85,1.09,.35,2.2,.58,3.34,.69,1.59,.16,3.17,.08,4.75-.22,2.21-.43,4.25-1.28,6.1-2.56,2.16-1.48,3.86-3.38,5.11-5.69,.44-.81,.8-1.65,1.1-2.52,.12-.36,.37-.58,.75-.61,.34-.03,.61,.12,.79,.41,.14,.23,.15,.47,.07,.71-.58,1.71-1.39,3.3-2.45,4.76-.96,1.33-2.08,2.5-3.35,3.53-1.26,1.01-2.63,1.83-4.11,2.47-1.29,.56-2.63,.96-4.01,1.2-1.03,.18-2.07,.27-2.92,.27Z"/><path class="d" d="M28,7.38c7.63,.01,13.95,6.18,13.94,14-.01,7.72-6.3,14.03-14.18,13.93-7.6-.1-13.9-6.35-13.76-14.25,.14-7.5,6.25-13.68,13.99-13.68Zm0,1.83c-6.72,0-12.16,5.42-12.16,12.12,0,6.66,5.34,12.16,12.13,12.17,6.71,0,12.05-5.36,12.16-11.94,.11-6.96-5.52-12.36-12.13-12.35Z"/><path class="d" d="M27.82,41.96c1.51,0,3-.14,4.47-.48,.21-.05,.41-.12,.63-.12,.44,0,.76,.3,.82,.74,.05,.37-.23,.76-.62,.85-.87,.21-1.75,.37-2.64,.48-.96,.12-1.93,.17-2.9,.16-1.42-.02-2.84-.17-4.23-.46-1.69-.35-3.31-.89-4.88-1.61-1.27-.59-2.47-1.3-3.61-2.12-1.02-.74-1.98-1.56-2.86-2.46-1.51-1.54-2.78-3.26-3.79-5.17-.9-1.7-1.57-3.49-2.01-5.37-.22-.94-.37-1.88-.47-2.84-.1-1-.13-2.01-.1-3.02,.04-1.11,.17-2.22,.37-3.32,.28-1.5,.72-2.96,1.3-4.37,.53-1.28,1.17-2.5,1.93-3.66,1.31-2,2.9-3.74,4.76-5.23,1.89-1.51,3.97-2.67,6.24-3.49,.45-.16,.93-.22,1.41-.29C22.61,.05,23.61-.01,24.61,0c.19,0,.38,.02,.57,.02,.1,0,.12,.04,.12,.12,.03,.41-.25,.79-.66,.86-1.01,.17-2.01,.39-2.99,.7-1.6,.5-3.11,1.19-4.54,2.06-1.44,.88-2.76,1.92-3.95,3.13-1.45,1.47-2.65,3.12-3.6,4.94-.86,1.64-1.48,3.36-1.87,5.17-.24,1.11-.39,2.24-.44,3.38-.05,1.09-.02,2.18,.1,3.27,.1,.88,.25,1.74,.46,2.6,.36,1.49,.88,2.92,1.56,4.29,.67,1.36,1.49,2.62,2.45,3.8,1.42,1.76,3.09,3.24,4.99,4.45,1.72,1.09,3.55,1.91,5.52,2.45,.94,.26,1.89,.45,2.86,.58,.68,.09,1.36,.15,2.05,.15,.2,0,.39,0,.59,0Z"/><path class="d" d="M2.41,17.92c-1.42,9.78,2.73,19.17,10.54,24.69,4.44,3.13,9.4,4.7,14.84,4.68,5.43-.02,10.36-1.65,14.82-4.78-.13,.38-.24,.74-.37,1.1-.15,.42-.3,.84-.45,1.26-.03,.09-.08,.16-.17,.21-1.74,1.03-3.57,1.86-5.49,2.49-1.17,.38-2.36,.69-3.57,.91-1.19,.22-2.4,.35-3.61,.41-1.1,.05-2.19,.04-3.29-.04-1.44-.11-2.87-.33-4.28-.66-2.15-.51-4.2-1.27-6.16-2.29-1.5-.78-2.92-1.68-4.25-2.73-1.85-1.45-3.48-3.1-4.91-4.96-1.35-1.76-2.46-3.67-3.34-5.7-.63-1.45-1.12-2.95-1.49-4.48-.3-1.24-.5-2.5-.62-3.77-.03-.37-.06-.73-.08-1.1-.01-.17,.06-.32,.11-.47,.49-1.57,1.05-3.12,1.7-4.64,.01-.03,.03-.06,.06-.11Z"/><path class="d" d="M28.49,60.04c-.38,.02-1.07,.02-1.77,0-.88-.02-1.76-.07-2.64-.15-.85-.08-1.69-.18-2.52-.32-.93-.15-1.86-.34-2.78-.56-1.33-.32-2.64-.71-3.93-1.18-1.14-.41-2.26-.88-3.36-1.41-1.67-.8-3.27-1.72-4.81-2.75-1.54-1.04-2.99-2.19-4.36-3.46-.13-.12-.26-.22-.35-.38-.18-.36-.09-.78,.23-1.03,.3-.23,.74-.21,1.03,.05,1.02,.95,2.08,1.84,3.21,2.66,1.46,1.07,2.99,2.03,4.59,2.87,1.74,.91,3.54,1.67,5.41,2.28,1.54,.5,3.1,.9,4.69,1.19,1.08,.2,2.17,.34,3.27,.43,1.33,.11,2.65,.16,3.98,.12,1.31-.04,2.62-.13,3.92-.32,.26-.04,.53-.12,.8-.07,.15,.03,.28,.1,.39,.21,.04,.04,.05,.07,0,.11-.48,.48-.97,.94-1.49,1.38-.12,.1-.28,.07-.42,.09-.93,.1-1.86,.18-3.1,.22Z"/><path class="d" d="M16.09,52.52c-.15,.02-.3-.06-.45-.13-2.33-.94-4.52-2.13-6.57-3.58-1.18-.84-2.3-1.75-3.36-2.73-1.68-1.57-3.19-3.3-4.5-5.19-.38-.54-.74-1.1-1.08-1.66-.24-.41-.13-.9,.26-1.13,.39-.24,.88-.1,1.13,.3,.89,1.47,1.89,2.85,3.02,4.14,1.33,1.54,2.8,2.92,4.4,4.17,1.66,1.29,3.44,2.39,5.33,3.31,.69,.34,1.39,.65,2.11,.93,.37,.15,.57,.43,.56,.8-.01,.35-.23,.64-.57,.75-.08,.02-.16,.03-.26,.03Z"/><path class="d" d="M38.99,50.93c-.19,.32-.37,.65-.56,.96-.22,.36-.45,.72-.67,1.08-.05,.08-.1,.12-.19,.15-1.47,.48-2.97,.85-4.49,1.11-1.02,.18-2.05,.3-3.08,.38-1.2,.09-2.4,.11-3.59,.07-1.16-.04-2.31-.15-3.45-.32-1.14-.17-2.27-.4-3.39-.68-.44-.11-.71-.54-.61-.96,.11-.47,.53-.73,1-.61,.81,.2,1.62,.38,2.44,.52,.64,.11,1.28,.2,1.92,.27,.97,.1,1.94,.16,2.92,.17,.91,.01,1.83-.02,2.74-.09,1.1-.08,2.19-.23,3.27-.43,1.76-.33,3.48-.81,5.15-1.44,.19-.07,.38-.15,.57-.22l.03,.03Z"/><path class="d" d="M18.93,64.51c-.26-.03-.51-.09-.76-.15-1.5-.34-2.97-.75-4.43-1.25-1.52-.52-3.01-1.12-4.46-1.81-.12-.06-.24-.11-.36-.18-.4-.21-.56-.68-.36-1.09,.19-.38,.67-.55,1.06-.36,.8,.38,1.61,.75,2.44,1.08,1.47,.6,2.97,1.11,4.5,1.53,.84,.23,1.69,.43,2.54,.61,.4,.09,.65,.4,.65,.8,0,.38-.26,.7-.65,.79-.05,.01-.11,.01-.17,.02Z"/><path class="d" d="M36.61,41.7c-.39,0-.71-.25-.79-.6-.09-.38,.07-.76,.42-.92,.81-.38,1.6-.79,2.37-1.26,1.21-.75,2.34-1.61,3.38-2.59,.5-.47,.97-.97,1.42-1.49,.25-.28,.6-.36,.94-.22,.07,.03,.1,.06,.08,.14-.09,.52-.18,1.05-.27,1.57-.01,.08-.05,.14-.11,.21-1.1,1.17-2.31,2.22-3.64,3.13-1.09,.75-2.23,1.4-3.44,1.94-.12,.05-.24,.09-.37,.09Z"/><path class="d" d="M37.95,21.38c.01,5.45-4.46,10-10.05,9.96-5.4-.04-9.97-4.44-9.9-10.13,.07-5.44,4.55-9.96,10.23-9.83,5.38,.12,9.75,4.54,9.73,10Zm-18.2-.03c-.02,4.5,3.61,8.15,8.03,8.24,4.75,.1,8.4-3.71,8.44-8.14,.04-4.59-3.63-8.27-8.12-8.32-4.75-.06-8.38,3.8-8.35,8.23Z"/><path class="d" d="M28.09,15.16c-3.46-.06-6.29,2.69-6.31,6.14-.02,3.44,2.75,6.24,6.14,6.24,3.47,0,6.24-2.74,6.24-6.2,.01-3.34-2.68-6.12-6.07-6.18Zm1.75,6.69c-1.39-.02-2.44-1.11-2.46-2.41-.02-1.42,1.07-2.52,2.47-2.52,1.35,0,2.45,1.1,2.45,2.46,0,1.37-1.11,2.49-2.47,2.47Z"/></g></g></g></svg>